<svg xmlns="http://www.w3.org/2000/svg" xmlns:xlink="http://www.w3.org/1999/xlink" width="150" zoomAndPan="magnify" viewBox="0 0 112.5 74.999997" height="100" preserveAspectRatio="xMidYMid meet" version="1.2"><defs><clipPath id="a73954c19f"><path d="M 1.34375 19.777344 L 42 19.777344 L 42 54.871094 L 1.34375 54.871094 Z M 1.34375 19.777344 "/></clipPath><clipPath id="edf7c063a5"><path d="M 11.074219 26.753906 L 32.730469 26.753906 L 32.730469 48.410156 L 11.074219 48.410156 Z M 11.074219 26.753906 "/></clipPath></defs><g id="55c67a62ee"><g clip-rule="nonzero" clip-path="url(#a73954c19f)"><path style=" stroke:none;fill-rule:nonzero;fill:#ffffff;fill-opacity:1;" d="M 41.875 37.324219 L 31.746094 54.871094 L 11.488281 54.871094 L 1.359375 37.324219 L 11.488281 19.777344 L 31.746094 19.777344 Z M 41.875 37.324219 "/></g><path style=" stroke:none;fill-rule:nonzero;fill:#ff0000;fill-opacity:1;" d="M 11.527344 52.253906 L 3.644531 38.601562 C 3.191406 37.816406 3.191406 36.84375 3.644531 36.046875 L 11.527344 22.394531 C 11.980469 21.609375 12.820312 21.117188 13.742188 21.117188 L 29.5 21.117188 C 30.414062 21.117188 31.253906 21.601562 31.71875 22.394531 L 39.597656 36.046875 C 40.054688 36.832031 40.054688 37.808594 39.597656 38.601562 L 31.71875 52.253906 C 31.261719 53.039062 30.421875 53.53125 29.5 53.53125 L 13.734375 53.53125 C 12.820312 53.53125 11.980469 53.039062 11.527344 52.253906 Z M 11.527344 52.253906 "/><path style=" stroke:none;fill-rule:nonzero;fill:#ff0000;fill-opacity:1;" d="M 39.167969 36.296875 L 31.28125 22.644531 C 30.914062 22.011719 30.226562 21.617188 29.492188 21.617188 L 13.734375 21.617188 C 13 21.617188 12.3125 22.011719 11.945312 22.644531 L 4.066406 36.296875 C 3.878906 36.617188 3.789062 36.976562 3.789062 37.324219 C 3.789062 37.671875 3.878906 38.039062 4.066406 38.351562 L 11.945312 52.003906 C 12.3125 52.636719 13 53.03125 13.734375 53.03125 L 29.492188 53.03125 C 30.226562 53.03125 30.914062 52.636719 31.28125 52.003906 L 39.167969 38.351562 C 39.347656 38.039062 39.4375 37.683594 39.4375 37.324219 C 39.4375 36.96875 39.347656 36.609375 39.167969 36.296875 Z M 39.089844 38.308594 L 31.207031 51.960938 C 30.859375 52.566406 30.199219 52.941406 29.5 52.941406 L 13.734375 52.941406 C 13.027344 52.941406 12.375 52.566406 12.027344 51.960938 L 4.144531 38.308594 C 3.96875 38.003906 3.886719 37.664062 3.886719 37.324219 C 3.886719 36.984375 3.976562 36.644531 4.144531 36.34375 L 12.027344 22.691406 C 12.375 22.082031 13.035156 21.707031 13.734375 21.707031 L 29.492188 21.707031 C 30.199219 21.707031 30.851562 22.082031 31.199219 22.691406 L 39.089844 36.34375 C 39.265625 36.644531 39.347656 36.984375 39.347656 37.324219 C 39.347656 37.664062 39.257812 38.003906 39.089844 38.308594 Z M 39.089844 38.308594 "/><g clip-rule="nonzero" clip-path="url(#edf7c063a5)"><path style=" stroke:none;fill-rule:nonzero;fill:#ffffff;fill-opacity:1;" d="M 25.042969 32.664062 L 25.042969 26.753906 L 18.597656 26.753906 L 18.597656 32.664062 L 21.820312 35.886719 Z M 16.984375 34.277344 L 11.074219 34.277344 L 11.074219 40.722656 L 16.984375 40.722656 L 20.210938 37.5 Z M 18.597656 42.335938 L 18.597656 48.246094 L 25.042969 48.246094 L 25.042969 42.335938 L 21.820312 39.113281 Z M 26.65625 34.277344 L 23.433594 37.5 L 26.65625 40.722656 L 32.566406 40.722656 L 32.566406 34.277344 Z M 26.65625 34.277344 "/></g><g style="fill:#ffffff;fill-opacity:1;"><g transform="translate(43.640593, 33.711915)"><path style="stroke:none" d="M 2.265625 -1.5625 C 1.128906 -2.675781 0.5625 -4.085938 0.5625 -5.796875 C 0.5625 -7.503906 1.128906 -8.910156 2.265625 -10.015625 C 3.410156 -11.128906 4.8125 -11.6875 6.46875 -11.6875 C 7.75 -11.6875 8.882812 -11.347656 9.875 -10.671875 C 10.875 -9.992188 11.570312 -9.050781 11.96875 -7.84375 L 8.625 -7.84375 C 8.1875 -8.6875 7.484375 -9.109375 6.515625 -9.109375 C 5.554688 -9.109375 4.800781 -8.804688 4.25 -8.203125 C 3.695312 -7.609375 3.421875 -6.804688 3.421875 -5.796875 C 3.421875 -4.785156 3.695312 -3.976562 4.25 -3.375 C 4.800781 -2.78125 5.539062 -2.484375 6.46875 -2.484375 C 7.132812 -2.484375 7.675781 -2.648438 8.09375 -2.984375 C 8.519531 -3.316406 8.804688 -3.757812 8.953125 -4.3125 L 5.703125 -4.3125 L 5.703125 -6.453125 L 11.96875 -6.453125 L 11.96875 -4.3125 C 11.757812 -3.269531 11.1875 -2.289062 10.25 -1.375 C 9.800781 -0.9375 9.242188 -0.582031 8.578125 -0.3125 C 7.921875 -0.0390625 7.21875 0.09375 6.46875 0.09375 C 4.8125 0.09375 3.410156 -0.457031 2.265625 -1.5625 Z M 2.265625 -1.5625 "/></g></g><g style="fill:#ffffff;fill-opacity:1;"><g transform="translate(55.443466, 33.711915)"><path style="stroke:none" d="M 8.5625 0 L 7.921875 -1.9375 L 3.78125 -1.9375 L 3.140625 0 L 0.140625 0 L 4.15625 -11.5625 L 7.578125 -11.5625 L 11.5625 0 Z M 4.484375 -4.078125 L 7.203125 -4.078125 L 5.84375 -8.171875 Z M 4.484375 -4.078125 "/></g></g><g style="fill:#ffffff;fill-opacity:1;"><g transform="translate(66.409108, 33.711915)"><path style="stroke:none" d="M 14.28125 -11.53125 L 14.28125 0 L 11.484375 0 L 11.484375 -6.5 L 8.796875 0 L 6.71875 0 L 4.046875 -6.5 L 4.046875 0 L 1.234375 0 L 1.234375 -11.53125 L 4.453125 -11.53125 L 7.765625 -3.578125 L 11.0625 -11.53125 Z M 14.28125 -11.53125 "/></g></g><g style="fill:#ffffff;fill-opacity:1;"><g transform="translate(81.183351, 33.711915)"><path style="stroke:none" d="M 8.203125 -11.5625 L 8.203125 -9.421875 L 4.046875 -9.421875 L 4.046875 -6.953125 L 7.71875 -6.953125 L 7.71875 -4.8125 L 4.046875 -4.8125 L 4.046875 -2.140625 L 8.203125 -2.140625 L 8.203125 0 L 1.234375 0 L 1.234375 -11.5625 Z M 8.203125 -11.5625 "/></g></g><g style="fill:#ffffff;fill-opacity:1;"><g transform="translate(89.834277, 33.711915)"><path style="stroke:none" d="M 5.140625 -9.46875 C 4.785156 -9.46875 4.492188 -9.375 4.265625 -9.1875 C 4.046875 -9.007812 3.9375 -8.742188 3.9375 -8.390625 C 3.9375 -8.035156 4.039062 -7.75 4.25 -7.53125 C 4.457031 -7.320312 4.726562 -7.160156 5.0625 -7.046875 C 5.394531 -6.929688 5.765625 -6.820312 6.171875 -6.71875 C 6.585938 -6.613281 7 -6.488281 7.40625 -6.34375 C 7.8125 -6.195312 8.179688 -6.015625 8.515625 -5.796875 C 8.847656 -5.578125 9.117188 -5.265625 9.328125 -4.859375 C 9.535156 -4.460938 9.640625 -3.988281 9.640625 -3.4375 C 9.640625 -2.457031 9.242188 -1.617188 8.453125 -0.921875 C 7.660156 -0.234375 6.613281 0.109375 5.3125 0.109375 C 4.007812 0.109375 2.960938 -0.195312 2.171875 -0.8125 C 1.378906 -1.4375 0.984375 -2.328125 0.984375 -3.484375 L 3.96875 -3.484375 C 4.050781 -2.566406 4.523438 -2.109375 5.390625 -2.109375 C 5.796875 -2.109375 6.113281 -2.210938 6.34375 -2.421875 C 6.570312 -2.640625 6.6875 -2.910156 6.6875 -3.234375 C 6.6875 -3.566406 6.582031 -3.835938 6.375 -4.046875 C 6.164062 -4.253906 5.894531 -4.414062 5.5625 -4.53125 C 5.226562 -4.65625 4.851562 -4.769531 4.4375 -4.875 C 4.03125 -4.976562 3.625 -5.101562 3.21875 -5.25 C 2.8125 -5.40625 2.441406 -5.585938 2.109375 -5.796875 C 1.773438 -6.015625 1.503906 -6.320312 1.296875 -6.71875 C 1.085938 -7.125 0.984375 -7.597656 0.984375 -8.140625 C 0.984375 -9.210938 1.382812 -10.070312 2.1875 -10.71875 C 2.988281 -11.363281 4.007812 -11.6875 5.25 -11.6875 C 6.488281 -11.6875 7.488281 -11.40625 8.25 -10.84375 C 9.019531 -10.28125 9.421875 -9.390625 9.453125 -8.171875 L 6.40625 -8.171875 C 6.363281 -8.585938 6.226562 -8.90625 6 -9.125 C 5.78125 -9.351562 5.492188 -9.46875 5.140625 -9.46875 Z M 5.140625 -9.46875 "/></g></g><g style="fill:#ffffff;fill-opacity:1;"><g transform="translate(43.640593, 47.63187)"><path style="stroke:none" d="M 2.265625 -1.5625 C 1.128906 -2.675781 0.5625 -4.085938 0.5625 -5.796875 C 0.5625 -7.503906 1.128906 -8.910156 2.265625 -10.015625 C 3.410156 -11.128906 4.8125 -11.6875 6.46875 -11.6875 C 7.75 -11.6875 8.882812 -11.347656 9.875 -10.671875 C 10.875 -9.992188 11.570312 -9.050781 11.96875 -7.84375 L 8.625 -7.84375 C 8.1875 -8.6875 7.484375 -9.109375 6.515625 -9.109375 C 5.554688 -9.109375 4.800781 -8.804688 4.25 -8.203125 C 3.695312 -7.609375 3.421875 -6.804688 3.421875 -5.796875 C 3.421875 -4.785156 3.695312 -3.976562 4.25 -3.375 C 4.800781 -2.78125 5.539062 -2.484375 6.46875 -2.484375 C 7.132812 -2.484375 7.675781 -2.648438 8.09375 -2.984375 C 8.519531 -3.316406 8.804688 -3.757812 8.953125 -4.3125 L 5.703125 -4.3125 L 5.703125 -6.453125 L 11.96875 -6.453125 L 11.96875 -4.3125 C 11.757812 -3.269531 11.1875 -2.289062 10.25 -1.375 C 9.800781 -0.9375 9.242188 -0.582031 8.578125 -0.3125 C 7.921875 -0.0390625 7.21875 0.09375 6.46875 0.09375 C 4.8125 0.09375 3.410156 -0.457031 2.265625 -1.5625 Z M 2.265625 -1.5625 "/></g></g><g style="fill:#ffffff;fill-opacity:1;"><g transform="translate(55.443466, 47.63187)"><path style="stroke:none" d="M 1.1875 -4.640625 L 1.1875 -11.53125 L 3.984375 -11.53125 L 3.984375 -4.640625 C 3.984375 -3.953125 4.15625 -3.421875 4.5 -3.046875 C 4.84375 -2.679688 5.34375 -2.5 6 -2.5 C 6.65625 -2.5 7.15625 -2.679688 7.5 -3.046875 C 7.851562 -3.421875 8.03125 -3.953125 8.03125 -4.640625 L 8.03125 -11.53125 L 10.84375 -11.53125 L 10.84375 -4.640625 C 10.84375 -3.628906 10.601562 -2.753906 10.125 -2.015625 C 9.644531 -1.273438 9.039062 -0.734375 8.3125 -0.390625 C 7.582031 -0.0546875 6.789062 0.109375 5.9375 0.109375 C 4.601562 0.109375 3.476562 -0.300781 2.5625 -1.125 C 1.644531 -1.957031 1.1875 -3.128906 1.1875 -4.640625 Z M 1.1875 -4.640625 "/></g></g><g style="fill:#ffffff;fill-opacity:1;"><g transform="translate(66.704605, 47.63187)"><path style="stroke:none" d="M 1.234375 0 L 1.234375 -11.53125 L 4.046875 -11.53125 L 4.046875 0 Z M 1.234375 0 "/></g></g><g style="fill:#ffffff;fill-opacity:1;"><g transform="translate(71.235021, 47.63187)"><path style="stroke:none" d="M 4.046875 -2.140625 L 5.28125 -2.140625 C 6.351562 -2.140625 7.195312 -2.46875 7.8125 -3.125 C 8.425781 -3.78125 8.734375 -4.660156 8.734375 -5.765625 C 8.734375 -6.867188 8.425781 -7.75 7.8125 -8.40625 C 7.195312 -9.0625 6.351562 -9.390625 5.28125 -9.390625 L 4.046875 -9.390625 Z M 5.28125 -11.53125 C 7.125 -11.53125 8.632812 -10.992188 9.8125 -9.921875 C 11 -8.859375 11.59375 -7.472656 11.59375 -5.765625 C 11.59375 -4.066406 11 -2.679688 9.8125 -1.609375 C 8.632812 -0.535156 7.125 0 5.28125 0 L 1.234375 0 L 1.234375 -11.53125 Z M 5.28125 -11.53125 "/></g></g><g style="fill:#ffffff;fill-opacity:1;"><g transform="translate(82.627489, 47.63187)"><path style="stroke:none" d="M 8.203125 -11.5625 L 8.203125 -9.421875 L 4.046875 -9.421875 L 4.046875 -6.953125 L 7.71875 -6.953125 L 7.71875 -4.8125 L 4.046875 -4.8125 L 4.046875 -2.140625 L 8.203125 -2.140625 L 8.203125 0 L 1.234375 0 L 1.234375 -11.5625 Z M 8.203125 -11.5625 "/></g></g><g style="fill:#ff0000;fill-opacity:1;"><g transform="translate(46.396944, 54.162645)"><path style="stroke:none" d="M 0.5625 0.03125 C 0.488281 0.03125 0.425781 0.0078125 0.375 -0.03125 C 0.332031 -0.0820312 0.3125 -0.148438 0.3125 -0.234375 L 0.3125 -2.59375 C 0.3125 -2.664062 0.332031 -2.722656 0.375 -2.765625 C 0.414062 -2.804688 0.472656 -2.828125 0.546875 -2.828125 L 1.546875 -2.828125 C 1.847656 -2.828125 2.082031 -2.75 2.25 -2.59375 C 2.414062 -2.445312 2.5 -2.238281 2.5 -1.96875 C 2.5 -1.695312 2.414062 -1.484375 2.25 -1.328125 C 2.082031 -1.171875 1.847656 -1.09375 1.546875 -1.09375 L 0.828125 -1.09375 L 0.828125 -0.234375 C 0.828125 -0.148438 0.800781 -0.0820312 0.75 -0.03125 C 0.707031 0.0078125 0.644531 0.03125 0.5625 0.03125 Z M 1.484375 -1.5 C 1.835938 -1.5 2.015625 -1.65625 2.015625 -1.96875 C 2.015625 -2.269531 1.835938 -2.421875 1.484375 -2.421875 L 0.828125 -2.421875 L 0.828125 -1.5 Z M 1.484375 -1.5 "/></g></g><g style="fill:#ff0000;fill-opacity:1;"><g transform="translate(49.571537, 54.162645)"><path style="stroke:none" d="M 2.5625 -0.328125 C 2.601562 -0.273438 2.625 -0.226562 2.625 -0.1875 C 2.625 -0.125 2.597656 -0.0703125 2.546875 -0.03125 C 2.492188 0.0078125 2.4375 0.03125 2.375 0.03125 C 2.332031 0.03125 2.289062 0.0195312 2.25 0 C 2.207031 -0.0195312 2.171875 -0.0507812 2.140625 -0.09375 L 1.609375 -0.90625 C 1.554688 -0.988281 1.5 -1.046875 1.4375 -1.078125 C 1.382812 -1.117188 1.304688 -1.140625 1.203125 -1.140625 L 0.8125 -1.140625 L 0.8125 -0.234375 C 0.8125 -0.148438 0.785156 -0.0820312 0.734375 -0.03125 C 0.691406 0.0078125 0.632812 0.03125 0.5625 0.03125 C 0.488281 0.03125 0.425781 0.0078125 0.375 -0.03125 C 0.332031 -0.0820312 0.3125 -0.148438 0.3125 -0.234375 L 0.3125 -2.59375 C 0.3125 -2.664062 0.332031 -2.722656 0.375 -2.765625 C 0.414062 -2.804688 0.472656 -2.828125 0.546875 -2.828125 L 1.5625 -2.828125 C 1.882812 -2.828125 2.128906 -2.753906 2.296875 -2.609375 C 2.460938 -2.472656 2.546875 -2.269531 2.546875 -2 C 2.546875 -1.78125 2.484375 -1.597656 2.359375 -1.453125 C 2.234375 -1.316406 2.054688 -1.226562 1.828125 -1.1875 C 1.898438 -1.164062 1.96875 -1.128906 2.03125 -1.078125 C 2.09375 -1.035156 2.148438 -0.972656 2.203125 -0.890625 Z M 1.484375 -1.53125 C 1.679688 -1.53125 1.820312 -1.566406 1.90625 -1.640625 C 2 -1.710938 2.046875 -1.828125 2.046875 -1.984375 C 2.046875 -2.140625 2 -2.25 1.90625 -2.3125 C 1.820312 -2.382812 1.679688 -2.421875 1.484375 -2.421875 L 0.8125 -2.421875 L 0.8125 -1.53125 Z M 1.484375 -1.53125 "/></g></g><g style="fill:#ff0000;fill-opacity:1;"><g transform="translate(52.886776, 54.162645)"><path style="stroke:none" d="M 1.5625 0.03125 C 1.289062 0.03125 1.050781 -0.0234375 0.84375 -0.140625 C 0.644531 -0.253906 0.488281 -0.421875 0.375 -0.640625 C 0.269531 -0.859375 0.21875 -1.117188 0.21875 -1.421875 C 0.21875 -1.710938 0.269531 -1.96875 0.375 -2.1875 C 0.488281 -2.40625 0.644531 -2.570312 0.84375 -2.6875 C 1.050781 -2.8125 1.289062 -2.875 1.5625 -2.875 C 1.84375 -2.875 2.082031 -2.8125 2.28125 -2.6875 C 2.488281 -2.570312 2.644531 -2.40625 2.75 -2.1875 C 2.851562 -1.96875 2.90625 -1.710938 2.90625 -1.421875 C 2.90625 -1.117188 2.847656 -0.859375 2.734375 -0.640625 C 2.628906 -0.421875 2.472656 -0.253906 2.265625 -0.140625 C 2.066406 -0.0234375 1.832031 0.03125 1.5625 0.03125 Z M 1.5625 -0.375 C 1.820312 -0.375 2.023438 -0.460938 2.171875 -0.640625 C 2.316406 -0.828125 2.390625 -1.085938 2.390625 -1.421875 C 2.390625 -1.753906 2.316406 -2.007812 2.171875 -2.1875 C 2.023438 -2.363281 1.820312 -2.453125 1.5625 -2.453125 C 1.300781 -2.453125 1.097656 -2.363281 0.953125 -2.1875 C 0.804688 -2.007812 0.734375 -1.753906 0.734375 -1.421875 C 0.734375 -1.085938 0.804688 -0.828125 0.953125 -0.640625 C 1.097656 -0.460938 1.300781 -0.375 1.5625 -0.375 Z M 1.5625 -0.375 "/></g></g><g style="fill:#ff0000;fill-opacity:1;"><g transform="translate(56.539567, 54.162645)"><path style="stroke:none" d="M 0.25 0.03125 C 0.0390625 0.03125 -0.0625 -0.0390625 -0.0625 -0.1875 C -0.0625 -0.25 -0.0390625 -0.296875 0 -0.328125 C 0.03125 -0.367188 0.0820312 -0.390625 0.15625 -0.390625 L 0.28125 -0.40625 C 0.394531 -0.40625 0.476562 -0.4375 0.53125 -0.5 C 0.582031 -0.570312 0.609375 -0.671875 0.609375 -0.796875 L 0.609375 -2.59375 C 0.609375 -2.664062 0.628906 -2.722656 0.671875 -2.765625 C 0.722656 -2.816406 0.789062 -2.84375 0.875 -2.84375 C 0.945312 -2.84375 1.003906 -2.816406 1.046875 -2.765625 C 1.097656 -2.722656 1.125 -2.664062 1.125 -2.59375 L 1.125 -0.796875 C 1.125 -0.296875 0.875 -0.0234375 0.375 0.015625 Z M 0.25 0.03125 "/></g></g><g style="fill:#ff0000;fill-opacity:1;"><g transform="translate(58.500582, 54.162645)"><path style="stroke:none" d="M 0.546875 0 C 0.472656 0 0.414062 -0.0195312 0.375 -0.0625 C 0.332031 -0.101562 0.3125 -0.164062 0.3125 -0.25 L 0.3125 -2.59375 C 0.3125 -2.664062 0.332031 -2.722656 0.375 -2.765625 C 0.414062 -2.804688 0.472656 -2.828125 0.546875 -2.828125 L 2 -2.828125 C 2.082031 -2.828125 2.144531 -2.8125 2.1875 -2.78125 C 2.226562 -2.75 2.25 -2.695312 2.25 -2.625 C 2.25 -2.5625 2.226562 -2.507812 2.1875 -2.46875 C 2.144531 -2.4375 2.082031 -2.421875 2 -2.421875 L 0.8125 -2.421875 L 0.8125 -1.640625 L 1.921875 -1.640625 C 2.003906 -1.640625 2.066406 -1.617188 2.109375 -1.578125 C 2.148438 -1.546875 2.171875 -1.5 2.171875 -1.4375 C 2.171875 -1.375 2.148438 -1.320312 2.109375 -1.28125 C 2.066406 -1.25 2.003906 -1.234375 1.921875 -1.234375 L 0.8125 -1.234375 L 0.8125 -0.40625 L 2 -0.40625 C 2.082031 -0.40625 2.144531 -0.382812 2.1875 -0.34375 C 2.226562 -0.3125 2.25 -0.265625 2.25 -0.203125 C 2.25 -0.140625 2.226562 -0.0859375 2.1875 -0.046875 C 2.144531 -0.015625 2.082031 0 2 0 Z M 0.546875 0 "/></g></g><g style="fill:#ff0000;fill-opacity:1;"><g transform="translate(61.389865, 54.162645)"><path style="stroke:none" d="M 1.5625 0.03125 C 1.289062 0.03125 1.050781 -0.0234375 0.84375 -0.140625 C 0.644531 -0.253906 0.488281 -0.421875 0.375 -0.640625 C 0.269531 -0.859375 0.21875 -1.117188 0.21875 -1.421875 C 0.21875 -1.710938 0.269531 -1.96875 0.375 -2.1875 C 0.488281 -2.40625 0.644531 -2.570312 0.84375 -2.6875 C 1.050781 -2.8125 1.289062 -2.875 1.5625 -2.875 C 1.738281 -2.875 1.90625 -2.84375 2.0625 -2.78125 C 2.21875 -2.726562 2.359375 -2.65625 2.484375 -2.5625 C 2.515625 -2.53125 2.535156 -2.5 2.546875 -2.46875 C 2.566406 -2.445312 2.578125 -2.414062 2.578125 -2.375 C 2.578125 -2.3125 2.5625 -2.257812 2.53125 -2.21875 C 2.5 -2.175781 2.457031 -2.15625 2.40625 -2.15625 C 2.351562 -2.15625 2.300781 -2.175781 2.25 -2.21875 C 2.132812 -2.300781 2.023438 -2.359375 1.921875 -2.390625 C 1.828125 -2.429688 1.71875 -2.453125 1.59375 -2.453125 C 1.3125 -2.453125 1.097656 -2.363281 0.953125 -2.1875 C 0.816406 -2.007812 0.75 -1.753906 0.75 -1.421875 C 0.75 -1.078125 0.816406 -0.816406 0.953125 -0.640625 C 1.097656 -0.472656 1.3125 -0.390625 1.59375 -0.390625 C 1.707031 -0.390625 1.8125 -0.40625 1.90625 -0.4375 C 2.007812 -0.46875 2.125 -0.523438 2.25 -0.609375 C 2.269531 -0.628906 2.289062 -0.644531 2.3125 -0.65625 C 2.34375 -0.664062 2.375 -0.671875 2.40625 -0.671875 C 2.457031 -0.671875 2.5 -0.648438 2.53125 -0.609375 C 2.5625 -0.566406 2.578125 -0.519531 2.578125 -0.46875 C 2.578125 -0.425781 2.566406 -0.390625 2.546875 -0.359375 C 2.535156 -0.328125 2.515625 -0.296875 2.484375 -0.265625 C 2.359375 -0.171875 2.21875 -0.0976562 2.0625 -0.046875 C 1.90625 0.00390625 1.738281 0.03125 1.5625 0.03125 Z M 1.5625 0.03125 "/></g></g><g style="fill:#ff0000;fill-opacity:1;"><g transform="translate(64.636791, 54.162645)"><path style="stroke:none" d="M 1.234375 0.015625 C 1.148438 0.015625 1.082031 -0.00390625 1.03125 -0.046875 C 0.988281 -0.0976562 0.96875 -0.160156 0.96875 -0.234375 L 0.96875 -2.40625 L 0.234375 -2.40625 C 0.078125 -2.40625 0 -2.476562 0 -2.625 C 0 -2.757812 0.078125 -2.828125 0.234375 -2.828125 L 2.21875 -2.828125 C 2.382812 -2.828125 2.46875 -2.757812 2.46875 -2.625 C 2.46875 -2.476562 2.382812 -2.40625 2.21875 -2.40625 L 1.484375 -2.40625 L 1.484375 -0.234375 C 1.484375 -0.160156 1.457031 -0.0976562 1.40625 -0.046875 C 1.363281 -0.00390625 1.304688 0.015625 1.234375 0.015625 Z M 1.234375 0.015625 "/></g></g></g></svg>